<svg xmlns="http://www.w3.org/2000/svg" viewBox="0 0 1300 1150" font-family="sans-serif" font-size="11">
<rect width="1300" height="1150" fill="#fafafa"/>
<rect x="20.0" y="20.0" width="1260.0" height="1080.0" fill="#f4f7f4" stroke="#333" stroke-width="1.5"/>
<rect x="1058.0" y="530.0" width="222.0" height="570.0" fill="none" stroke="#999" stroke-dasharray="4,3"/>
<text x="1062.0" y="542.0" fill="#777">PSU bay (two CRPS, stacked)</text>
<rect x="20.0" y="1064.0" width="819.0" height="36.0" fill="none" stroke="#999" stroke-dasharray="4,3"/>
<text x="24.0" y="1076.0" fill="#777">rear I/O</text>
<rect x="20.0" y="20.0" width="1260.0" height="24.0" fill="none" stroke="#999" stroke-dasharray="4,3"/>
<text x="24.0" y="32.0" fill="#777">front fans</text>
<polygon points="950.8,800.0 860.8,800.0 860.8,915.5 950.8,915.5" fill="#f9e9e9" stroke="none"/>
<polygon points="745.2,785.0 722.8,785.0 722.8,1043.0 745.2,1043.0" fill="#d9d4ec" stroke="#333" stroke-width="1"/>
<text x="734.0" y="916.0" text-anchor="middle" font-size="6">J_SLOT0</text>
<polygon points="679.2,785.0 656.8,785.0 656.8,1043.0 679.2,1043.0" fill="#d9d4ec" stroke="#333" stroke-width="1"/>
<text x="668.0" y="916.0" text-anchor="middle" font-size="6">J_SLOT1</text>
<polygon points="613.2,785.0 590.8,785.0 590.8,1043.0 613.2,1043.0" fill="#d9d4ec" stroke="#333" stroke-width="1"/>
<text x="602.0" y="916.0" text-anchor="middle" font-size="6">J_SLOT2</text>
<polygon points="547.2,785.0 524.8,785.0 524.8,1043.0 547.2,1043.0" fill="#d9d4ec" stroke="#333" stroke-width="1"/>
<text x="536.0" y="916.0" text-anchor="middle" font-size="6">J_SLOT3</text>
<polygon points="481.2,785.0 458.8,785.0 458.8,1043.0 481.2,1043.0" fill="#d9d4ec" stroke="#333" stroke-width="1"/>
<text x="470.0" y="916.0" text-anchor="middle" font-size="6">J_SLOT4</text>
<polygon points="458.8,755.0 481.2,755.0 481.2,497.0 458.8,497.0" fill="#d9d4ec" stroke="#333" stroke-width="1"/>
<text x="470.0" y="628.0" text-anchor="middle" font-size="6">J_SLOT5</text>
<polygon points="524.8,755.0 547.2,755.0 547.2,497.0 524.8,497.0" fill="#d9d4ec" stroke="#333" stroke-width="1"/>
<text x="536.0" y="628.0" text-anchor="middle" font-size="6">J_SLOT6</text>
<polygon points="590.8,755.0 613.2,755.0 613.2,497.0 590.8,497.0" fill="#d9d4ec" stroke="#333" stroke-width="1"/>
<text x="602.0" y="628.0" text-anchor="middle" font-size="6">J_SLOT7</text>
<polygon points="656.8,755.0 679.2,755.0 679.2,497.0 656.8,497.0" fill="#d9d4ec" stroke="#333" stroke-width="1"/>
<text x="668.0" y="628.0" text-anchor="middle" font-size="6">J_SLOT8</text>
<polygon points="722.8,755.0 745.2,755.0 745.2,497.0 722.8,497.0" fill="#d9d4ec" stroke="#333" stroke-width="1"/>
<text x="734.0" y="628.0" text-anchor="middle" font-size="6">J_SLOT9</text>
<polygon points="946.2,804.5 865.2,804.5 865.2,885.5 946.2,885.5" fill="#fff2cc" stroke="#333" stroke-width="1"/>
<text x="905.75" y="848.3333333333334" text-anchor="middle" font-size="10">U_FPGA</text>
<polygon points="952.2,795.5 952.2,818.0 984.1,818.0 984.1,795.5" fill="#e8f3e8" stroke="#333" stroke-width="1"/>
<text x="968.1500000000001" y="808.75" text-anchor="middle" font-size="6">U_D0</text>
<polygon points="952.2,821.0 952.2,843.5 984.1,843.5 984.1,821.0" fill="#e8f3e8" stroke="#333" stroke-width="1"/>
<text x="968.1500000000001" y="834.25" text-anchor="middle" font-size="6">U_D1</text>
<polygon points="952.2,846.5 952.2,869.0 984.1,869.0 984.1,846.5" fill="#e8f3e8" stroke="#333" stroke-width="1"/>
<text x="968.1500000000001" y="859.75" text-anchor="middle" font-size="6">U_D2</text>
<polygon points="952.2,872.0 952.2,894.5 984.1,894.5 984.1,872.0" fill="#e8f3e8" stroke="#333" stroke-width="1"/>
<text x="968.1500000000001" y="885.25" text-anchor="middle" font-size="6">U_D3</text>
<polygon points="612.5,471.5 639.5,471.5 639.5,444.5 612.5,444.5" fill="#eeeeee" stroke="#333" stroke-width="1"/>
<text x="626.0" y="460.0" text-anchor="middle" font-size="6">U_CLK</text>
<polygon points="935.8,893.0 875.8,893.0 875.8,912.5 935.8,912.5" fill="#eeeeee" stroke="#333" stroke-width="1"/>
<text x="905.75" y="904.75" text-anchor="middle" font-size="6">REG_FPGA</text>
<polygon points="990.1,848.0 990.1,908.0 1009.6,908.0 1009.6,848.0" fill="#eeeeee" stroke="#333" stroke-width="1"/>
<text x="999.8000000000001" y="880.0" text-anchor="middle" font-size="6">REG_DDR</text>
<polygon points="990.1,782.0 990.1,842.0 1009.6,842.0 1009.6,782.0" fill="#eeeeee" stroke="#333" stroke-width="1"/>
<text x="999.8000000000001" y="814.0" text-anchor="middle" font-size="6">REG_3V3</text>
<polygon points="656.0,467.8 716.0,467.8 716.0,448.2 656.0,448.2" fill="#eeeeee" stroke="#333" stroke-width="1"/>
<text x="686.0" y="460.0" text-anchor="middle" font-size="6">REG_IO</text>
<polygon points="764.8,1095.5 842.8,1095.5 842.8,1068.5 764.8,1068.5" fill="#dddddd" stroke="#333" stroke-width="1"/>
<text x="803.75" y="1084.0" text-anchor="middle" font-size="6">J_HOST</text>
<polygon points="179.0,1094.0 221.0,1094.0 221.0,944.0 179.0,944.0" fill="#dddddd" stroke="#333" stroke-width="1"/>
<text x="200.0" y="1021.0" text-anchor="middle" font-size="6">J_SFP</text>
<polygon points="86.0,1092.5 134.0,1092.5 134.0,1029.5 86.0,1029.5" fill="#dddddd" stroke="#333" stroke-width="1"/>
<text x="110.0" y="1064.3333333333333" text-anchor="middle" font-size="10">J_BMC_NET</text>
<polygon points="78.5,951.5 141.5,951.5 141.5,888.5 78.5,888.5" fill="#fff2cc" stroke="#333" stroke-width="1"/>
<text x="110.0" y="923.3333333333334" text-anchor="middle" font-size="10">U_BMC</text>
<polygon points="1109.0,575.0 1229.0,575.0 1229.0,545.0 1109.0,545.0" fill="#dddddd" stroke="#333" stroke-width="1"/>
<text x="1169.0" y="562.0" text-anchor="middle" font-size="6">J_PSU0</text>
<polygon points="1109.0,845.0 1229.0,845.0 1229.0,815.0 1109.0,815.0" fill="#dddddd" stroke="#333" stroke-width="1"/>
<text x="1169.0" y="832.0" text-anchor="middle" font-size="6">J_PSU1</text>
<polygon points="110.0,65.0 140.0,65.0 140.0,47.0 110.0,47.0" fill="#dddddd" stroke="#333" stroke-width="1"/>
<text x="125.0" y="58.0" text-anchor="middle" font-size="6">J_FAN0</text>
<polygon points="320.0,65.0 350.0,65.0 350.0,47.0 320.0,47.0" fill="#dddddd" stroke="#333" stroke-width="1"/>
<text x="335.0" y="58.0" text-anchor="middle" font-size="6">J_FAN1</text>
<polygon points="530.0,65.0 560.0,65.0 560.0,47.0 530.0,47.0" fill="#dddddd" stroke="#333" stroke-width="1"/>
<text x="545.0" y="58.0" text-anchor="middle" font-size="6">J_FAN2</text>
<polygon points="740.0,65.0 770.0,65.0 770.0,47.0 740.0,47.0" fill="#dddddd" stroke="#333" stroke-width="1"/>
<text x="755.0" y="58.0" text-anchor="middle" font-size="6">J_FAN3</text>
<polygon points="950.0,65.0 980.0,65.0 980.0,47.0 950.0,47.0" fill="#dddddd" stroke="#333" stroke-width="1"/>
<text x="965.0" y="58.0" text-anchor="middle" font-size="6">J_FAN4</text>
<polygon points="1160.0,65.0 1190.0,65.0 1190.0,47.0 1160.0,47.0" fill="#dddddd" stroke="#333" stroke-width="1"/>
<text x="1175.0" y="58.0" text-anchor="middle" font-size="6">J_FAN5</text>
<polyline points="737.0,828.5 762.9,828.5 834.4,829.2 858.3,837.5 860.2,837.5" fill="none" stroke="#1f5fbf" stroke-width="0.6"/>
<polyline points="737.0,831.5 762.9,831.5 834.4,832.2 858.3,839.0 869.8,839.0" fill="none" stroke="#1f5fbf" stroke-width="0.6"/>
<polyline points="737.0,834.5 762.9,834.5 834.4,835.2 858.3,840.5 860.2,840.5" fill="none" stroke="#1f5fbf" stroke-width="0.6"/>
<polyline points="737.0,837.5 762.8,837.5 834.4,838.2 858.3,842.0 869.8,842.0" fill="none" stroke="#1f5fbf" stroke-width="0.6"/>
<polyline points="737.0,840.5 762.8,840.5 834.4,841.2 858.3,843.5 860.2,843.5" fill="none" stroke="#1f5fbf" stroke-width="0.6"/>
<polyline points="737.0,843.5 762.8,843.5 834.4,844.2 858.3,845.0 869.8,845.0" fill="none" stroke="#1f5fbf" stroke-width="0.6"/>
<polyline points="737.0,846.5 762.8,846.5 834.3,847.2 858.3,846.5 860.2,846.5" fill="none" stroke="#1f5fbf" stroke-width="0.6"/>
<polyline points="737.0,849.5 762.8,849.5 834.3,850.2 858.3,848.0 869.8,848.0" fill="none" stroke="#1f5fbf" stroke-width="0.6"/>
<polyline points="737.0,852.5 762.8,852.5 834.3,853.2 858.3,849.5 860.2,849.5" fill="none" stroke="#1f5fbf" stroke-width="0.6"/>
<polyline points="737.0,855.5 762.7,855.5 834.3,856.2 858.3,851.0 869.8,851.0" fill="none" stroke="#1f5fbf" stroke-width="0.6"/>
<polyline points="737.0,858.5 762.7,858.5 834.3,859.2 858.3,852.5 860.2,852.5" fill="none" stroke="#1f5fbf" stroke-width="0.6"/>
<polyline points="737.0,861.5 762.7,861.5 834.3,862.2 858.3,854.0 869.8,854.0" fill="none" stroke="#1f5fbf" stroke-width="0.6"/>
<polyline points="731.0,873.5 727.8,873.5 689.4,828.5 671.0,828.5" fill="none" stroke="#1f5fbf" stroke-width="0.6"/>
<polyline points="731.0,876.5 726.4,876.5 688.0,831.5 671.0,831.5" fill="none" stroke="#1f5fbf" stroke-width="0.6"/>
<polyline points="731.0,879.5 725.0,879.5 686.6,834.5 671.0,834.5" fill="none" stroke="#1f5fbf" stroke-width="0.6"/>
<polyline points="731.0,882.5 723.7,882.5 685.3,837.5 671.0,837.5" fill="none" stroke="#1f5fbf" stroke-width="0.6"/>
<polyline points="731.0,885.5 722.3,885.5 683.9,840.5 671.0,840.5" fill="none" stroke="#1f5fbf" stroke-width="0.6"/>
<polyline points="731.0,888.5 720.9,888.5 682.5,843.5 671.0,843.5" fill="none" stroke="#1f5fbf" stroke-width="0.6"/>
<polyline points="731.0,891.5 719.5,891.5 681.1,846.5 671.0,846.5" fill="none" stroke="#1f5fbf" stroke-width="0.6"/>
<polyline points="731.0,894.5 718.1,894.5 679.7,849.5 671.0,849.5" fill="none" stroke="#1f5fbf" stroke-width="0.6"/>
<polyline points="731.0,897.5 716.7,897.5 678.3,852.5 671.0,852.5" fill="none" stroke="#1f5fbf" stroke-width="0.6"/>
<polyline points="731.0,900.5 715.4,900.5 677.0,855.5 671.0,855.5" fill="none" stroke="#1f5fbf" stroke-width="0.6"/>
<polyline points="731.0,903.5 714.0,903.5 675.6,858.5 671.0,858.5" fill="none" stroke="#1f5fbf" stroke-width="0.6"/>
<polyline points="731.0,906.5 712.6,906.5 674.2,861.5 671.0,861.5" fill="none" stroke="#1f5fbf" stroke-width="0.6"/>
<polyline points="665.0,873.5 661.8,873.5 623.4,828.5 605.0,828.5" fill="none" stroke="#1f5fbf" stroke-width="0.6"/>
<polyline points="665.0,876.5 660.4,876.5 622.0,831.5 605.0,831.5" fill="none" stroke="#1f5fbf" stroke-width="0.6"/>
<polyline points="665.0,879.5 659.0,879.5 620.6,834.5 605.0,834.5" fill="none" stroke="#1f5fbf" stroke-width="0.6"/>
<polyline points="665.0,882.5 657.7,882.5 619.3,837.5 605.0,837.5" fill="none" stroke="#1f5fbf" stroke-width="0.6"/>
<polyline points="665.0,885.5 656.3,885.5 617.9,840.5 605.0,840.5" fill="none" stroke="#1f5fbf" stroke-width="0.6"/>
<polyline points="665.0,888.5 654.9,888.5 616.5,843.5 605.0,843.5" fill="none" stroke="#1f5fbf" stroke-width="0.6"/>
<polyline points="665.0,891.5 653.5,891.5 615.1,846.5 605.0,846.5" fill="none" stroke="#1f5fbf" stroke-width="0.6"/>
<polyline points="665.0,894.5 652.1,894.5 613.7,849.5 605.0,849.5" fill="none" stroke="#1f5fbf" stroke-width="0.6"/>
<polyline points="665.0,897.5 650.7,897.5 612.3,852.5 605.0,852.5" fill="none" stroke="#1f5fbf" stroke-width="0.6"/>
<polyline points="665.0,900.5 649.4,900.5 611.0,855.5 605.0,855.5" fill="none" stroke="#1f5fbf" stroke-width="0.6"/>
<polyline points="665.0,903.5 648.0,903.5 609.6,858.5 605.0,858.5" fill="none" stroke="#1f5fbf" stroke-width="0.6"/>
<polyline points="665.0,906.5 646.6,906.5 608.2,861.5 605.0,861.5" fill="none" stroke="#1f5fbf" stroke-width="0.6"/>
<polyline points="599.0,873.5 595.8,873.5 557.4,828.5 539.0,828.5" fill="none" stroke="#1f5fbf" stroke-width="0.6"/>
<polyline points="599.0,876.5 594.4,876.5 556.0,831.5 539.0,831.5" fill="none" stroke="#1f5fbf" stroke-width="0.6"/>
<polyline points="599.0,879.5 593.0,879.5 554.6,834.5 539.0,834.5" fill="none" stroke="#1f5fbf" stroke-width="0.6"/>
<polyline points="599.0,882.5 591.7,882.5 553.3,837.5 539.0,837.5" fill="none" stroke="#1f5fbf" stroke-width="0.6"/>
<polyline points="599.0,885.5 590.3,885.5 551.9,840.5 539.0,840.5" fill="none" stroke="#1f5fbf" stroke-width="0.6"/>
<polyline points="599.0,888.5 588.9,888.5 550.5,843.5 539.0,843.5" fill="none" stroke="#1f5fbf" stroke-width="0.6"/>
<polyline points="599.0,891.5 587.5,891.5 549.1,846.5 539.0,846.5" fill="none" stroke="#1f5fbf" stroke-width="0.6"/>
<polyline points="599.0,894.5 586.1,894.5 547.7,849.5 539.0,849.5" fill="none" stroke="#1f5fbf" stroke-width="0.6"/>
<polyline points="599.0,897.5 584.7,897.5 546.3,852.5 539.0,852.5" fill="none" stroke="#1f5fbf" stroke-width="0.6"/>
<polyline points="599.0,900.5 583.4,900.5 545.0,855.5 539.0,855.5" fill="none" stroke="#1f5fbf" stroke-width="0.6"/>
<polyline points="599.0,903.5 582.0,903.5 543.6,858.5 539.0,858.5" fill="none" stroke="#1f5fbf" stroke-width="0.6"/>
<polyline points="599.0,906.5 580.6,906.5 542.2,861.5 539.0,861.5" fill="none" stroke="#1f5fbf" stroke-width="0.6"/>
<polyline points="533.0,873.5 529.8,873.5 491.4,828.5 473.0,828.5" fill="none" stroke="#1f5fbf" stroke-width="0.6"/>
<polyline points="533.0,876.5 528.4,876.5 490.0,831.5 473.0,831.5" fill="none" stroke="#1f5fbf" stroke-width="0.6"/>
<polyline points="533.0,879.5 527.0,879.5 488.6,834.5 473.0,834.5" fill="none" stroke="#1f5fbf" stroke-width="0.6"/>
<polyline points="533.0,882.5 525.7,882.5 487.3,837.5 473.0,837.5" fill="none" stroke="#1f5fbf" stroke-width="0.6"/>
<polyline points="533.0,885.5 524.3,885.5 485.9,840.5 473.0,840.5" fill="none" stroke="#1f5fbf" stroke-width="0.6"/>
<polyline points="533.0,888.5 522.9,888.5 484.5,843.5 473.0,843.5" fill="none" stroke="#1f5fbf" stroke-width="0.6"/>
<polyline points="533.0,891.5 521.5,891.5 483.1,846.5 473.0,846.5" fill="none" stroke="#1f5fbf" stroke-width="0.6"/>
<polyline points="533.0,894.5 520.1,894.5 481.7,849.5 473.0,849.5" fill="none" stroke="#1f5fbf" stroke-width="0.6"/>
<polyline points="533.0,897.5 518.7,897.5 480.3,852.5 473.0,852.5" fill="none" stroke="#1f5fbf" stroke-width="0.6"/>
<polyline points="533.0,900.5 517.4,900.5 479.0,855.5 473.0,855.5" fill="none" stroke="#1f5fbf" stroke-width="0.6"/>
<polyline points="533.0,903.5 516.0,903.5 477.6,858.5 473.0,858.5" fill="none" stroke="#1f5fbf" stroke-width="0.6"/>
<polyline points="533.0,906.5 514.6,906.5 476.2,861.5 473.0,861.5" fill="none" stroke="#1f5fbf" stroke-width="0.6"/>
<polyline points="467.0,873.5 457.7,873.5 457.7,711.5 467.0,711.5" fill="none" stroke="#1f5fbf" stroke-width="0.6"/>
<polyline points="467.0,876.5 454.7,876.5 454.7,708.5 467.0,708.5" fill="none" stroke="#1f5fbf" stroke-width="0.6"/>
<polyline points="467.0,879.5 451.7,879.5 451.7,705.5 467.0,705.5" fill="none" stroke="#1f5fbf" stroke-width="0.6"/>
<polyline points="467.0,882.5 448.7,882.5 448.7,702.5 467.0,702.5" fill="none" stroke="#1f5fbf" stroke-width="0.6"/>
<polyline points="467.0,885.5 445.7,885.5 445.7,699.5 467.0,699.5" fill="none" stroke="#1f5fbf" stroke-width="0.6"/>
<polyline points="467.0,888.5 442.7,888.5 442.7,696.5 467.0,696.5" fill="none" stroke="#1f5fbf" stroke-width="0.6"/>
<polyline points="467.0,891.5 439.7,891.5 439.7,693.5 467.0,693.5" fill="none" stroke="#1f5fbf" stroke-width="0.6"/>
<polyline points="467.0,894.5 436.7,894.5 436.7,690.5 467.0,690.5" fill="none" stroke="#1f5fbf" stroke-width="0.6"/>
<polyline points="467.0,897.5 433.7,897.5 433.7,687.5 467.0,687.5" fill="none" stroke="#1f5fbf" stroke-width="0.6"/>
<polyline points="467.0,900.5 430.7,900.5 430.7,684.5 467.0,684.5" fill="none" stroke="#1f5fbf" stroke-width="0.6"/>
<polyline points="467.0,903.5 427.7,903.5 427.7,681.5 467.0,681.5" fill="none" stroke="#1f5fbf" stroke-width="0.6"/>
<polyline points="467.0,906.5 424.7,906.5 424.7,678.5 467.0,678.5" fill="none" stroke="#1f5fbf" stroke-width="0.6"/>
<polyline points="473.0,666.5 476.2,666.5 514.6,711.5 533.0,711.5" fill="none" stroke="#1f5fbf" stroke-width="0.6"/>
<polyline points="473.0,663.5 477.6,663.5 516.0,708.5 533.0,708.5" fill="none" stroke="#1f5fbf" stroke-width="0.6"/>
<polyline points="473.0,660.5 479.0,660.5 517.4,705.5 533.0,705.5" fill="none" stroke="#1f5fbf" stroke-width="0.6"/>
<polyline points="473.0,657.5 480.3,657.5 518.7,702.5 533.0,702.5" fill="none" stroke="#1f5fbf" stroke-width="0.6"/>
<polyline points="473.0,654.5 481.7,654.5 520.1,699.5 533.0,699.5" fill="none" stroke="#1f5fbf" stroke-width="0.6"/>
<polyline points="473.0,651.5 483.1,651.5 521.5,696.5 533.0,696.5" fill="none" stroke="#1f5fbf" stroke-width="0.6"/>
<polyline points="473.0,648.5 484.5,648.5 522.9,693.5 533.0,693.5" fill="none" stroke="#1f5fbf" stroke-width="0.6"/>
<polyline points="473.0,645.5 485.9,645.5 524.3,690.5 533.0,690.5" fill="none" stroke="#1f5fbf" stroke-width="0.6"/>
<polyline points="473.0,642.5 487.3,642.5 525.7,687.5 533.0,687.5" fill="none" stroke="#1f5fbf" stroke-width="0.6"/>
<polyline points="473.0,639.5 488.6,639.5 527.0,684.5 533.0,684.5" fill="none" stroke="#1f5fbf" stroke-width="0.6"/>
<polyline points="473.0,636.5 490.0,636.5 528.4,681.5 533.0,681.5" fill="none" stroke="#1f5fbf" stroke-width="0.6"/>
<polyline points="473.0,633.5 491.4,633.5 529.8,678.5 533.0,678.5" fill="none" stroke="#1f5fbf" stroke-width="0.6"/>
<polyline points="539.0,666.5 542.2,666.5 580.6,711.5 599.0,711.5" fill="none" stroke="#1f5fbf" stroke-width="0.6"/>
<polyline points="539.0,663.5 543.6,663.5 582.0,708.5 599.0,708.5" fill="none" stroke="#1f5fbf" stroke-width="0.6"/>
<polyline points="539.0,660.5 545.0,660.5 583.4,705.5 599.0,705.5" fill="none" stroke="#1f5fbf" stroke-width="0.6"/>
<polyline points="539.0,657.5 546.3,657.5 584.7,702.5 599.0,702.5" fill="none" stroke="#1f5fbf" stroke-width="0.6"/>
<polyline points="539.0,654.5 547.7,654.5 586.1,699.5 599.0,699.5" fill="none" stroke="#1f5fbf" stroke-width="0.6"/>
<polyline points="539.0,651.5 549.1,651.5 587.5,696.5 599.0,696.5" fill="none" stroke="#1f5fbf" stroke-width="0.6"/>
<polyline points="539.0,648.5 550.5,648.5 588.9,693.5 599.0,693.5" fill="none" stroke="#1f5fbf" stroke-width="0.6"/>
<polyline points="539.0,645.5 551.9,645.5 590.3,690.5 599.0,690.5" fill="none" stroke="#1f5fbf" stroke-width="0.6"/>
<polyline points="539.0,642.5 553.3,642.5 591.7,687.5 599.0,687.5" fill="none" stroke="#1f5fbf" stroke-width="0.6"/>
<polyline points="539.0,639.5 554.6,639.5 593.0,684.5 599.0,684.5" fill="none" stroke="#1f5fbf" stroke-width="0.6"/>
<polyline points="539.0,636.5 556.0,636.5 594.4,681.5 599.0,681.5" fill="none" stroke="#1f5fbf" stroke-width="0.6"/>
<polyline points="539.0,633.5 557.4,633.5 595.8,678.5 599.0,678.5" fill="none" stroke="#1f5fbf" stroke-width="0.6"/>
<polyline points="605.0,666.5 608.2,666.5 646.6,711.5 665.0,711.5" fill="none" stroke="#1f5fbf" stroke-width="0.6"/>
<polyline points="605.0,663.5 609.6,663.5 648.0,708.5 665.0,708.5" fill="none" stroke="#1f5fbf" stroke-width="0.6"/>
<polyline points="605.0,660.5 611.0,660.5 649.4,705.5 665.0,705.5" fill="none" stroke="#1f5fbf" stroke-width="0.6"/>
<polyline points="605.0,657.5 612.3,657.5 650.7,702.5 665.0,702.5" fill="none" stroke="#1f5fbf" stroke-width="0.6"/>
<polyline points="605.0,654.5 613.7,654.5 652.1,699.5 665.0,699.5" fill="none" stroke="#1f5fbf" stroke-width="0.6"/>
<polyline points="605.0,651.5 615.1,651.5 653.5,696.5 665.0,696.5" fill="none" stroke="#1f5fbf" stroke-width="0.6"/>
<polyline points="605.0,648.5 616.5,648.5 654.9,693.5 665.0,693.5" fill="none" stroke="#1f5fbf" stroke-width="0.6"/>
<polyline points="605.0,645.5 617.9,645.5 656.3,690.5 665.0,690.5" fill="none" stroke="#1f5fbf" stroke-width="0.6"/>
<polyline points="605.0,642.5 619.3,642.5 657.7,687.5 665.0,687.5" fill="none" stroke="#1f5fbf" stroke-width="0.6"/>
<polyline points="605.0,639.5 620.6,639.5 659.0,684.5 665.0,684.5" fill="none" stroke="#1f5fbf" stroke-width="0.6"/>
<polyline points="605.0,636.5 622.0,636.5 660.4,681.5 665.0,681.5" fill="none" stroke="#1f5fbf" stroke-width="0.6"/>
<polyline points="605.0,633.5 623.4,633.5 661.8,678.5 665.0,678.5" fill="none" stroke="#1f5fbf" stroke-width="0.6"/>
<polyline points="671.0,666.5 674.2,666.5 712.6,711.5 731.0,711.5" fill="none" stroke="#1f5fbf" stroke-width="0.6"/>
<polyline points="671.0,663.5 675.6,663.5 714.0,708.5 731.0,708.5" fill="none" stroke="#1f5fbf" stroke-width="0.6"/>
<polyline points="671.0,660.5 677.0,660.5 715.4,705.5 731.0,705.5" fill="none" stroke="#1f5fbf" stroke-width="0.6"/>
<polyline points="671.0,657.5 678.3,657.5 716.7,702.5 731.0,702.5" fill="none" stroke="#1f5fbf" stroke-width="0.6"/>
<polyline points="671.0,654.5 679.7,654.5 718.1,699.5 731.0,699.5" fill="none" stroke="#1f5fbf" stroke-width="0.6"/>
<polyline points="671.0,651.5 681.1,651.5 719.5,696.5 731.0,696.5" fill="none" stroke="#1f5fbf" stroke-width="0.6"/>
<polyline points="671.0,648.5 682.5,648.5 720.9,693.5 731.0,693.5" fill="none" stroke="#1f5fbf" stroke-width="0.6"/>
<polyline points="671.0,645.5 683.9,645.5 722.3,690.5 731.0,690.5" fill="none" stroke="#1f5fbf" stroke-width="0.6"/>
<polyline points="671.0,642.5 685.3,642.5 723.7,687.5 731.0,687.5" fill="none" stroke="#1f5fbf" stroke-width="0.6"/>
<polyline points="671.0,639.5 686.6,639.5 725.0,684.5 731.0,684.5" fill="none" stroke="#1f5fbf" stroke-width="0.6"/>
<polyline points="671.0,636.5 688.0,636.5 726.4,681.5 731.0,681.5" fill="none" stroke="#1f5fbf" stroke-width="0.6"/>
<polyline points="671.0,633.5 689.4,633.5 727.8,678.5 731.0,678.5" fill="none" stroke="#1f5fbf" stroke-width="0.6"/>
<polyline points="737.0,666.5 756.6,666.5 888.5,781.1 896.8,797.6 896.8,809.0" fill="none" stroke="#1f5fbf" stroke-width="0.6"/>
<polyline points="737.0,663.5 757.8,663.5 891.5,779.8 898.2,797.6 898.2,799.4" fill="none" stroke="#1f5fbf" stroke-width="0.6"/>
<polyline points="737.0,660.5 758.9,660.5 894.5,778.4 899.8,797.6 899.8,809.0" fill="none" stroke="#1f5fbf" stroke-width="0.6"/>
<polyline points="737.0,657.5 760.0,657.5 897.5,777.0 901.2,797.6 901.2,799.4" fill="none" stroke="#1f5fbf" stroke-width="0.6"/>
<polyline points="737.0,654.5 761.1,654.5 900.5,775.7 902.8,797.6 902.8,809.0" fill="none" stroke="#1f5fbf" stroke-width="0.6"/>
<polyline points="737.0,651.5 762.2,651.5 903.5,774.3 904.2,797.6 904.2,799.4" fill="none" stroke="#1f5fbf" stroke-width="0.6"/>
<polyline points="737.0,648.5 763.4,648.5 906.5,772.9 905.8,797.6 905.8,809.0" fill="none" stroke="#1f5fbf" stroke-width="0.6"/>
<polyline points="737.0,645.5 764.5,645.5 909.5,771.5 907.2,797.6 907.2,799.4" fill="none" stroke="#1f5fbf" stroke-width="0.6"/>
<polyline points="737.0,642.5 765.6,642.5 912.5,770.2 908.8,797.6 908.8,809.0" fill="none" stroke="#1f5fbf" stroke-width="0.6"/>
<polyline points="737.0,639.5 766.7,639.5 915.5,768.8 910.2,797.6 910.2,799.4" fill="none" stroke="#1f5fbf" stroke-width="0.6"/>
<polyline points="737.0,636.5 767.8,636.5 918.5,767.4 911.8,797.6 911.8,809.0" fill="none" stroke="#1f5fbf" stroke-width="0.6"/>
<polyline points="737.0,633.5 769.0,633.5 921.5,766.1 913.2,797.6 913.2,799.4" fill="none" stroke="#1f5fbf" stroke-width="0.6"/>
<text x="26.0" y="1110.0" fill="#333">2U rack chassis, motherboard with module slots, host-attached. Generated from hw/board_psram.yaml by hw/kicad_gen.py. Blue: ring ribbons on In2.Cu; pink: core-rail islands on In3.Cu. Rear of the chassis at the bottom.</text>
<text x="26.0" y="1126.0" fill="#333">Memory, PCIe and management nets are unrouted. Longest lane per hop: FPGA -> A0 64 mm; A0 -> A1 65 mm; A1 -> A2 65 mm; A2 -> A3 65 mm; A3 -> A4 65 mm; A4 -> A5 142 mm; A5 -> A6 65 mm; A6 -> A7 65 mm; A7 -> H0 65 mm; H0 -> H1 65 mm; H1 -> FPGA 110 mm</text>
</svg>
